<?xml version="1.0" encoding="utf-8"?>
<!-- Generator: Adobe Illustrator 22.1.0, SVG Export Plug-In . SVG Version: 6.00 Build 0)  -->
<svg version="1.1" id="Layer_1" xmlns="http://www.w3.org/2000/svg" xmlns:xlink="http://www.w3.org/1999/xlink" x="0px" y="0px"
	 viewBox="0 0 864 864" style="enable-background:new 0 0 864 864;" xml:space="preserve">
<style type="text/css">
	.st0{fill:#020202;}
</style>
<path class="st0" d="M213.5,445.6c-0.1,0.1-0.3,0.2-0.4,0.3c-0.1-0.3-0.6-0.6-0.1-0.8C213.1,445,213.3,445.4,213.5,445.6z
	 M310.1,437.5l-1.1,4.3v3.6l-1.6,2.8l1.2,3.2v2.8l0.4,2.4l2.2,2.3c0-6.4,0-12.7,0-19.1C311.1,438.9,311.6,437.7,310.1,437.5z
	 M262,423.3L262,423.3C262,423.3,262,423.3,262,423.3L262,423.3z M825.7,485.6H655.4c7.4,0.4,11.8,0.9,11.7,1.5
	c-0.2,2.4-70.8,5.1-79.3,5.5c-4.1,0.2-33.6,0.6-33,1.1c2.9,2.7,29.2,5.2,38.8,5.5c19,0.8,34.9-0.3,44,4c-81.3,0.5-87,4.1-183-0.5
	c-11.2-0.5-17.5-1.8-16.1-4.1c3.6-5.8,27.7-3.4,35.4-4.8c1.5-0.3,1.3-2.1-0.3-2.1c-25.6,0.4-105.9,0.1-139.4-3.2
	c3.5-1.3,7.9-2.2,12.7-2.9h-33.5c-0.3,0.3-0.4,0.8-0.2,1.3c0.1,0.4,0.2,0.8,0.4,1.2c0.2,0.3,0.2,0.6-0.2,0.8c-0.4,0.2-0.5,0.6-0.5,1
	c-0.1,1.6-0.1,3.1-0.1,4.7c0,1.2,0.3,2.4,0.5,3.5c0,0.3,0.1,0.5,0,0.8c-0.2,1-0.2,2,0.2,2.9c0.3,0.7,0.4,1.5,0.4,2.2
	c0,0.2-0.1,0.4-0.2,0.6c-0.4,0.5-0.5,1.2-0.4,1.8c0.2,1.3,0.1,2.7,0.3,4.1c0.2,1.3,0.3,2.7,0.7,4c0.2,0.7,0.4,1.4,0.5,2.1
	c0.1,0.4,0.3,0.7,0.5,1c0.1,0.1,0.2,0.3,0.4,0.3c1.6,0.9,1.8,2.4,1.8,4c0,0.8,0,1.7,0,2.5c0,0.5-0.1,0.9-0.3,1.2
	c-0.3,0.4-0.3,0.8-0.2,1.2c0.2,0.7,0.2,1.4,0.2,2.1c0,0.3,0.1,0.6,0.2,0.9c0.2,0.3,0.3,0.7,0.4,1.1c0.1,0.7,0.2,0.8,0.9,0.8
	c0.1,0,0.2,0,0.3,0c0.8,0,0.8,0,0.8,0.8c0.1,0.8,0.1,1.6,0.2,2.4c0,0.3,0.1,0.6,0.3,0.9c0,0.3-0.1,0.6-0.2,0.8
	c-0.1,0.2-0.3,0.5-0.1,0.7c0.1,0.2-0.2,0.6,0.3,0.4c-0.4,0.3-0.2,0.7,0,1.1c0,0.1,0,0.1,0,0.2c0.2,0.4,0.5,0.3,0.8,0.3
	c0.7-0.1,1.3-0.2,2,0c0.2,0,0.4,0,0.5-0.2c0.1-0.1,0.2,0,0.3,0c0.1,0.1,0.1,0.2,0.2,0.2c0.7,0,1.5,0.1,2.2-0.1c0.1,0,0.2,0,0.3,0
	c0.3,0.2,0.5,0.2,0.8,0c0.4,0,0.8,0,1.1,0c0.3,0.1,0.6,0.3,0.5,0.7c0,0.2,0,0.4,0.2,0.5c0,0.2,0,0.4,0,0.7c-0.1,0.1-0.2,0.1-0.1,0.3
	c0.1,0.9,0.3,1.8,0.4,2.7c-0.1,1.2,0,2.5,0.1,3.7c0,0.4,0.2,0.5,0.5,0.5c1.6,0.2,3.2,0.3,4.8,0c1-0.2,2.1-0.3,3.2-0.1
	c0.5,0.1,1-0.2,1.5-0.2c0.7,0,1.5,0,2.2,0.1c1.2,0,2.3,0,3.5-0.1c0.7,0,1.5,0.1,2.3,0.1c1.5,0,2.9,0,4.4,0c0.7,0,0.7,0,0.8,0.7
	c-0.1,0.4-0.2,0.8,0.1,1.1c0.1,0.3,0.1,0.5,0.1,0.8c0,2,0,4.1,0,6.1c32.3,0.3,63.4,1,63.3,2.8c-0.2,2.1-49.5,4.3-55.5,4.6
	c-2.8,0.1-23.5,0.4-23.1,0.9c2,2.4,20.5,4.6,27.2,5c13.3,0.7,24.4-0.2,30.8,3.6c-56.9,0.2-60.9,3.3-128.1-1
	c-7.9-0.5-12.3-1.7-11.3-3.6c2.5-5,19.4-2.9,24.8-4.1c1.1-0.2,0.9-1.8-0.2-1.8c-17.9,0.3-74.1-0.2-97.6-3.2c12-5.4,39-3.7,38.7-3.8
	c0.2,0.1,0.4,0.2,0.7,0.3c0.1-1.3,0.1-2.5,0.2-3.8c0-0.3,0-0.6,0.3-0.9c0.2-0.2,0.2-0.5,0.2-0.8c0-0.6,0-1.2,0-1.9
	c0-0.3,0.1-0.5,0.4-0.5c1.5,0,3-0.3,4.5-0.2c3,0.2,6.1,0,9.1,0.1c0.7,0,1.4-0.1,2.1-0.1c2.7-0.1,5.3,0.1,8,0.2c0.8,0,0.8,0,0.9-0.8
	c0.1-1.8,0.4-3.7,0.6-5.5c0.1-0.7,0.1-1.3,0.2-2c0-0.3,0.1-0.5,0.5-0.5c2.3-0.1,4.6-0.3,6.9-0.2c0.4,0,0.8-0.1,1.1-0.1
	c0.7,0,1.3,0,2,0c0.4,0,0.7,0,0.5-0.5c0-0.1,0-0.2,0.1-0.3c0.5-0.7,0.3-1.5,0.1-2.2c-0.1-0.3-0.1-0.5,0-0.7c0.3-0.4,0.4-0.8,0.3-1.3
	c0-0.7,0.1-1.5,0.3-2.2c0.1-0.3,0.1-0.6,0.1-0.9c0-0.5,0.2-0.8,0.5-1.1c0.3-0.3,0.5-0.6,0.8-0.8c0.4-0.4,0.4-0.7,0.2-1.2
	c-0.4-1.2-0.5-2.5,0-3.7c0.2-0.5,0.1-1.1-0.3-1.5c-0.4-0.4-0.6-0.9-0.4-1.4c0.2-0.7-0.1-1.4,0.2-2.1c0.3-0.7,0.6-1.4,1.3-1.8
	c0.2-0.1,0.4-0.3,0.5-0.6c0.1-0.6,0.6-1,0.6-1.7c0-0.2,0.1-0.5,0.3-0.5c0.5-0.2,0.5-0.6,0.5-1c0-0.3,0-0.7,0.4-0.9
	c0.1-0.9,0.7-1.6,0.6-2.5c0-0.4,0-0.8,0-1.2c0.3-1.7,0.1-3.5,0.3-5.2c0.1-0.5-0.2-1-0.5-1.5c-0.2-0.4-0.3-0.8,0.1-1.2
	c0.5-0.6,0.5-1.3,0.5-1.9c-0.1-1.3,0-2.5,0.1-3.7c0.1-1.3,0.1-2.5-0.1-3.8c-0.1-0.6,0.1-1.2,0.2-1.8c0.2-0.9-0.1-1.7,0-2.6
	c0-0.2-0.1-0.4-0.2-0.5c-0.3-0.4-0.3-0.8-0.5-1.2c0,0,0-0.1,0-0.1H38.8v-5.4h85.4c0-6,0-11.9,0-17.9c2.3,0.7,4.5,0.9,6.4-1.1
	c0.6-0.6,1.5-0.4,2.3-0.4c2.4,0,4.8,0,7.1,0c5.2,0,6.5-0.8,6.6-6.1c0-7.2,1.6-14.5-0.2-21.6c-1.3-5.1,1.8-7.8,4.9-10.7
	c1.2-1.1,2.6-1.9,3.4-3.3c0.6-1.1,1.5-0.5,2.4-0.3c5.5,1.2,10,4,13.4,8.4c1,1.3,0.7,2.7,0.6,4c-0.7,7.1-1.5,14.4-0.1,21.3
	c0.9,4.3,0.5,8.4,0.9,12.6c0.3,2.8,2,2.1,3.5,1.6c0.8-0.2,1.4-1.2,2.1-1.3c3.9-0.2,4-2.7,4.1-5.7c0.1-4.8-0.3-9.5,0.7-14.3
	c0.4-2,1.7-3.1,3.2-3.2c1.4-0.2,3.5-1.3,4.3,1.6c0.5,1.6,2.4,0.2,3.8,0.8c-0.6-2.5,0.6-4.8,0.1-7.1c-0.1-0.3,0.2-0.8,0.7-0.8
	c0.8,0,1.1,0.9,1,1.2c-0.3,1-0.3,2-0.3,3.1c0,3.4,1.6,4.7,4.5,3.3c1.4-0.6,1.5-2.3,0.3-3.4c-0.8-0.7-0.7-1.6-0.4-2
	c0.6-0.7,1.7-0.3,2.5-0.3c1.1,0.1,0.8,0.9,0.7,1.6c-0.3,1.4,1,2.6,0.8,3.7c-0.9,3.9,1.7,5.4,4.3,7c1.9,1.2,2.4,3.1,2.3,5.3
	c0,1.9-1.2,4.5,2.1,5.5c0.5,0.1,0.3,2.5,0.4,3.8c0.1,0.9,0.2,1.8,0.3,2.8c0.2,0,0.5,0,0.7-0.1c0-3.5,0.3-7.1-0.1-10.6
	c-0.4-3.5-0.4-7,0.1-10.4c0-0.3-0.2-0.7-0.4-1.1c0.1-0.1,0.3-0.2,0.4-0.3c2.7,0.9,5-1.5,7.6-1.2c1.1,0.1,0.4-1.1,0.9-1.5
	c1.1-0.9,3,0.5,4,1.4c4.1,3.4,1,8,2.1,11.9c0.2,0.6-0.1,1.2,0.7,1.4c0.3,0.1,0.9,0.1,1.1-0.1c0.9-1.1-0.6-0.8-0.8-1.3
	c-0.5-1.1-0.2-2.2-0.1-3.4c1.6,0.5,1,1.6,1.2,2.3c0.3,1.1-0.1,2.7,2,2.5c1.1-0.1,0.8,0.9,0.8,1.5c0.1,1.8-0.1,3.6,0.1,5.4
	c0.2,2.3,0.9,2.6,2.7,1.3c1.6-1.2,4.7,0.7,4.9,3.1c0.1,1.4,0.3,1.9,1.8,1.8c1.8-0.1,0.9-1.3,1.3-2.1c0.4-0.9-1.3-3.2,1.6-2.4
	c0.1-0.3,0.1-0.6,0.2-0.9c0.2-0.8-0.6-2.1,0.4-2.4c1.2-0.3,2.7-0.3,3.8,0c0.9,0.3,1,1-0.4,0.5c-0.2-0.1-0.3,0.5-0.1,0.9
	c0.9,1.7,2.8,2.7,4.1,2.3c1-0.3,3-1.1,2.9-3.3c-0.4-10.9,1.1-21.7,0.5-32.6c-0.1-2.5,0.4-3.7,3.1-3.2c0.7,0.1,1.4,0,2.1,0
	c-0.5-1.6-0.6-3-0.1-4.5c1.7,0.9,3.8-0.5,5.5,1.4c1.3,1.5,1.4,4.3,4.2,4.4c0.1,0,0.2,1.3,0.2,2c0,3.4,0,6.7,0,10.1
	c0,2.3,1.3,3.8,3.2,3.9l0.1,0.7l-0.3,2.7l0.3,3l0.3,3l-2.4,1.8h-3l-0.3,1.8l-0.3,2.7l-3,0.9l0.6,2.7l1.2,2.7l-0.6,2.7l-2.7,1.2
	l-3-0.3l0.3,3.6v4.8v1.2h2.5c0-0.2-0.1-0.4-0.1-0.6c0-0.5-0.1-0.9-0.3-1.3c-0.2-0.2-0.2-0.5-0.2-0.8c0-1.3,0-2.6,0-3.9
	c0-0.5,0.4-1.1,1-1.3c0.4-0.1,0.8,0.1,1.1,0.4c0.3,0.3,0.7,0.5,1,0.6c0.7,0.2,1.3-0.1,1.5-0.7c0.3-0.6,0.6-1.3,0.6-2
	c0-0.5,0.5-0.9,0.5-1.4c0.1-0.9,0.5-1.7,0.4-2.6c0-0.3-0.1-0.6-0.2-0.9c-0.3-0.4-0.5-0.9-0.7-1.4c-0.2-0.4,0-0.7,0.3-1
	c0.2-0.1,0.4-0.3,0.7-0.3c0.8-0.3,0.8-0.3,0.8-1.1c0-0.9,0-1.7,0.2-2.6c0.2-0.7,0.2-0.7,0.8-0.7c0.4,0,0.8,0,1.2-0.1
	c0.1,0,0.3,0,0.4-0.1c0.9-0.7,1.9-1.4,2.2-2.5c0.1-0.4,0.4-0.7,0.5-1c0.4-0.9,0.5-1.8,0.7-2.7c0.2-0.9-0.1-1.8-0.4-2.6
	c-0.2-0.5-0.2-0.9,0.1-1.4c0.4-0.6,0.4-1.2,0.4-1.9c0-1.3-0.1-2.7-0.2-4c0-0.2,0-0.3-0.1-0.5c-0.3-0.8-0.2-1.6,0.1-2.4
	c0.1-0.4,0.2-0.9,0.2-1.4c0.2-1.2,0.2-2.4,0.3-3.6c0-0.6,0.1-1.3,0-1.9c-0.1-0.3,0-0.6,0.2-0.9c0.2-0.4,0.3-0.9,0.3-1.3
	c-0.1-0.7,0.3-1.3,0.5-2c0.1-0.4,0.1-0.7-0.1-1c-0.3-0.4-0.1-1-0.1-1.4c0-0.4,0-0.8-0.3-1.1c-0.2-0.3-0.3-0.6-0.3-1
	c0.1-0.4,0.1-0.9,0.1-1.3c0-0.4,0-0.7-0.1-1c-0.2-0.5-0.3-0.9-0.3-1.4c-0.1-0.4,0-0.9-0.3-1.3c-0.1-0.1-0.1-0.4-0.1-0.6
	c0-1-0.3-2-0.7-2.9c-0.2-0.4-0.2-0.6,0-1c0.5-0.9,1-1.9,1.3-2.9c0.1-0.3,0.2-0.6,0.2-0.9c0.1-0.6,0-1.1,0.5-1.6
	c0.5-0.6,0.2-1.5-0.5-1.9c-0.4-0.2-0.8-0.2-1.2-0.4c-0.3-0.1-0.4-0.2-0.6-0.5c-0.4-0.9-0.4-1.8-0.3-2.8c0.1-1,0.1-2,0.4-3
	c0.3-0.9,0.6-1.9,1.1-2.8c0.6-0.9,0.7-1.9,1.3-2.8c0.1-0.1,0.1-0.2,0-0.4c-0.4-0.4-0.4-0.9-0.4-1.5c0-0.3-0.1-0.6-0.3-0.8
	c-0.4-0.5-0.8-1-1.1-1.6c-0.1-0.1-0.2-0.2-0.3-0.3c-0.8-0.8-0.9-1.6-0.1-2.6c0.3-0.4,0.4-0.7,0.1-1.1c-0.4-0.6-0.4-1.3-0.2-1.9
	c0.1-0.2,0.1-0.4,0.2-0.6c0.1-0.4,0-0.6-0.3-0.8c-0.3-0.3-0.8-0.5-0.9-1c0-0.1-0.2-0.1-0.3-0.1c-0.6-0.2-0.7-0.4-0.6-1
	c0.1-0.3,0.3-0.7,0.4-1c0.4-0.6,0.3-1-0.4-1.2c-1-0.2-1.4-0.8-1.7-1.7c-0.5-1.4-0.5-2.8-0.1-4.2c0.5-1.8,1.3-3.5,2.3-5
	c0.4-0.5,0.5-1.1,0.4-1.8c-0.1-1.5-0.5-2.9-0.9-4.3c-0.5-1.5-0.6-3.1-0.5-4.7c0-1.6,0-3.1,0.1-4.7c0-0.7-0.1-1.3-0.5-1.9
	c-0.2-0.3-0.3-0.7-0.1-1.1c0.3-0.7,0.2-1.2-0.2-1.8c-0.3-0.4-0.4-0.9-0.6-1.4c0-0.1-0.1-0.3-0.1-0.4c0.3-1.1-0.2-2-0.4-3
	c0-0.2-0.1-0.3,0.1-0.5c0.4-0.4,0.2-0.8-0.1-1.1c-0.3-0.4-0.4-0.8-0.5-1.2c-0.1-0.4-0.2-0.8-0.7-0.9c-0.6-0.1-0.7-0.6-1-1
	c-0.2-0.2,0-0.5,0.2-0.7c0.2-0.2,0.3-0.4,0.4-0.6c0.1-0.4,0.2-0.7-0.2-1c-0.2-0.1-0.3-0.5-0.2-0.5c0.4,0,0.3-0.7,0.7-0.5
	c0.3,0.1,0.5,0,0.7-0.2c0.2-0.3,0.5-0.1,0.8,0c0.8,0.1,1-0.1,0.9-0.9c0-0.5-0.3-0.8-0.5-1.2c-0.3-0.6-0.3-1.2,0.3-1.7
	c0,0,0.1-0.1,0.1-0.1c0.3-0.4,0.7-0.8,0.3-1.4c-0.1-0.2,0.1-0.5,0.3-0.3c0.6,0.6,1,0.1,1.3-0.3c0.3-0.1,0.7-0.2,1-0.3
	c0.1,0,0.2-0.1,0.2-0.2l0,0c0.1,0,0.3-0.1,0.3,0c0.4,0.4,0.9,0.3,1.3,0.4c0,0.5,0,0.9,0,1.4c-0.1,0.6,0,1.3-0.2,1.9
	c0,0.1,0,0.2,0,0.3c-0.2,0.2-0.3,0.4-0.3,0.7c-0.1,0.1-0.2,0.2-0.2,0.3c-0.5,0.2-0.5,0.7-0.5,1.2c0,0.2,0.1,0.4,0.4,0.2
	c0.2,0,0.4-0.1,0.5,0.1c0,0.2,0.1,0.3,0.3,0.3c0.5,0,1-0.1,1.4,0.4c0.5-0.1,0.5,0.3,0.5,0.7c0,0,0,0.1-0.1,0.1
	c-0.2,0.1-0.3,0.2-0.2,0.4c0,0.1,0,0.2,0,0.2c-0.1,0.3-0.1,0.6,0.2,0.7c0,0,0,0.1,0.1,0.1c0.2,0.4,0.2,0.9-0.1,1.2c0,0,0,0.1,0,0.2
	c-0.1,0.3-0.4,0.4-0.7,0.5c-0.2-0.1-0.3,0-0.4,0.1c-0.1,0-0.3,0.1-0.4,0.1c-0.1-0.1-0.3-0.1-0.4,0.1c-0.2,0-0.4,0-0.4,0.3
	c0,0.3,0.1,0.6,0,0.9c-0.1,0.1-0.2,0.2-0.2,0.3c-0.3,0.2-0.3,0.4-0.1,0.7c0,0.2-0.1,0.3-0.1,0.5c0.1,0.4,0.5,0.6,0.7,0.8
	c0.1,0.2,0.2,0.5,0.3,0.7c0,0.5,0.3,0.8,0.5,1.2c0,0.1,0,0.2,0.1,0.3c-0.2,0.2-0.1,0.4,0.1,0.5c0,0.3,0.1,0.5,0.1,0.8
	c-0.2,0.2-0.1,0.4,0,0.6c0,0.2,0,0.4-0.1,0.6c-0.2,0.3-0.3,0.7-0.1,1c0,0.8-0.2,1.6,0,2.4c-0.1,0.3-0.1,0.5,0.1,0.7
	c0,0.2,0,0.4,0.1,0.6c-0.1,0.3-0.1,0.6,0.1,0.9c0,0.2,0.1,0.3,0.1,0.5c-0.1,0.1-0.1,0.2,0,0.3c0,0.1,0,0.2,0,0.3
	c-0.1,0.2,0,0.3,0.1,0.4c0,0.1,0,0.2,0.1,0.3c-0.1,0.2,0,0.4,0.1,0.6c0.1,0.2,0.1,0.5,0.2,0.7c-0.1,0.2,0,0.3,0.1,0.4
	c0.1,0.2,0.1,0.5,0.2,0.7c-0.1,0.2,0,0.4,0.1,0.5c0,0.1,0.1,0.3,0.1,0.4c-0.1,0.1-0.1,0.3,0.1,0.4c0,0.1,0.1,0.3,0.1,0.4
	c-0.1,0.1,0,0.3,0.1,0.4c0,0.2,0.1,0.4,0.1,0.6c-0.1,0.2-0.1,0.4,0.1,0.6c0,0.4,0.1,0.8,0.1,1.1c-0.2,0.3-0.1,0.6-0.1,1
	c0,0.9,0,0.9,0.9,0.9c1.2,0.1,2.4-0.1,3.5-0.1c0.8,0,1.4-0.4,1.9-0.8c0.2-0.2,0.5-0.4,0.1-0.7c0,0-0.1-0.1-0.1-0.1
	c-0.6-0.9-1.4-1.7-2.3-2.3c-0.2-0.3-0.5-0.5-0.7-0.8c0.1-0.2,0.2-0.2,0.4-0.2l0,0c0,0.2,0.1,0.2,0.2,0.2c0.3,0.1,0.5,0.4,0.8,0.5
	c0,0.2,0.1,0.2,0.3,0.2c0.1,0.1,0.1,0.1,0.2,0.2c0,0.2,0.2,0.3,0.4,0.3c0,0,0.1,0,0.1,0.1c0.1,0.2,0.2,0.3,0.4,0.3
	c0.1,0.1,0.2,0.2,0.3,0.2c0.1,0.3,0.4,0.4,0.7,0.4l0,0c0.5,0.5,0.6,0.6,1.1,0.4c0.2-0.1,0.4-0.1,0.6-0.2c0.2,0.1,0.3,0,0.4-0.1
	c0.2,0,0.3-0.1,0.5-0.1c0.3,0.1,0.7,0.2,0.7-0.3c0-0.4,0.2-0.8,0-1.2c0-0.3,0-0.5,0.1-0.8c0.2-0.6,0.2-1.1,0.1-1.7
	c0-0.2,0-0.3,0-0.5c0.1,0,0.3,0,0.4,0c0,0.1,0.1,0.3,0.1,0.4c-0.1,0.3-0.1,0.5,0.1,0.7c0,0.1,0,0.2,0,0.3c-0.1,0.3-0.1,0.6,0.1,0.9
	c0,0.1,0.1,0.3,0.1,0.4c-0.2,0.5,0.1,1,0.1,1.5c0,0.2,0.2,0.3,0.3,0.3c0.6,0.1,1.1,0.3,1.7,0.4c0.3,0.1,0.6,0,0.8-0.2
	c0.5-0.4,1.1-0.8,1.6-1.2c0.2-0.2,0.6-0.3,0.7-0.7c0,0,0.1-0.1,0.1-0.1c0.3,0,0.4-0.1,0.5-0.3c0.1-0.1,0.1-0.1,0.2-0.2
	c0.2,0.1,0.2,0.2,0.2,0.4c-0.1,0.1-0.2,0.2-0.3,0.3c-0.4,0.4-0.8,0.7-1,1.2c-0.1,0.1-0.3,0.3-0.4,0.4c-1.1,0.8-1.1,1-0.2,1.8
	c0.1,0.1,0.2,0.2,0.3,0.3c0.1,0.1,0.3,0.1,0.4,0c0.3,0,0.6,0,0.8,0c0.1,0.1,0.2,0,0.3,0c0.8-0.2,1.7-0.3,2.5-0.5
	c0.2,0,0.5-0.1,0.5,0.3c-0.1,0-0.2,0-0.3,0.1c-0.7,0.2-1.4,0.4-2.1,0.8c-0.1,0.1-0.3,0.1-0.4,0.2c-0.3,0-0.6,0.2-0.9,0.3
	c-0.3,0.1-0.3,0.4-0.3,0.7c0.1,0.3,0.1,0.6,0.6,0.5c0.1,0,0.2,0,0.3,0.1c0.4,0.1,0.8,0.3,1.2,0.1c0.1,0,0.2,0,0.3,0.1
	c0.3,0.3,0.6,0.2,0.9,0.3c0.7,0.1,1.5,0.2,2.2,0.3c0.2,0,0.4,0,0.4,0.3c-0.1,0-0.2,0-0.3,0c-0.3-0.2-0.6-0.1-0.8,0.1
	c-0.6,0-1.1,0.1-1.7,0.1c-0.4-0.2-0.8-0.1-1.2,0.1c-0.4,0-0.9,0.1-1.3,0.1c-0.1-0.1-0.2-0.1-0.3,0c-0.3,0.9-0.7,1.9,0.1,2.8
	c0,0.1,0,0.1,0,0.2c-0.6,0.3-0.6,0.3-0.5,0.9c0.1,0.9,0.3,1.8,0.6,2.6c0.2,0.5,0.3,1-0.2,1.5c-0.3,0.3-0.2,0.6-0.1,1
	c0.3,0.9,0.6,1.7,0.9,2.6c0.2,0.8,1,1.3,1.1,2.1c0,0.1,0.1,0.2,0.2,0.2c0.7,0.2,1.3,0.7,2,1.1c0.1,0.2,0.2,0.3,0.3,0.5
	c0,0.2,0.1,0.3,0.3,0.3c1,1.1,1.2,2.5,1.6,3.8c0.2,0.8,0.3,1.5,0.6,2.3c0.4,1,1,1.7,1.8,2.2c0.4,0.2,0.8,0.4,1,0.8
	c0.4,0.5,0.9,0.5,1.4,0.1c0.4-0.4,0.8-0.9,1.1-1.5c0.2-0.3,0.4-0.6,0.8-0.5c0.3,0.1,0.3-0.1,0.4-0.4c0.3-0.7,0.4-0.8,1.1-0.4
	c1.2,0.6,2.3,1.2,3.4,1.8c0.7,0.3,1.3,0.8,2.1,1c0.4,0.1,0.6,0.6,1.1,0.7c0.2,0,0.1,0.4-0.1,0.6c-0.4,0.4-0.7,0.8-0.3,1.4
	c0.1,0.1,0,0.2-0.1,0.3c-0.4,0.4-0.4,1-0.9,1.5c-0.3,0.3-0.3,0.7,0,1c0.6,0.6,0.6,1.4,0.3,2.1c-0.7,1.8-1.9,3.3-3.4,4.5
	c-0.4,0.3-0.8,0.4-1.3,0.4c-0.7,0-0.8,0.2-0.8,0.9c-0.1,1.4,0,2.8-0.6,4.2c-0.2,0.5-0.4,1.1-0.5,1.6c-0.2,0.7-0.5,1.2-0.7,1.8
	c-0.2,0.6-0.9,0.8-1.5,1c-0.1,0-0.2,0-0.3,0c-0.8,0-1.1,0.4-0.9,1.2c0.1,0.8,0.3,1.5,0.3,2.3c0.1,1.8,0.3,3.5,0.4,5.3
	c0,0.7,0.1,1.4,0.3,2.1c0.2,0.7,0.2,1.4,0,2.2c-0.3,1.2-0.1,2.3,0.3,3.4c0.2,0.7,0.2,1.2-0.4,1.7c-0.1,0.1-0.2,0.3-0.4,0.4
	c-0.3,0.4-0.4,0.8-0.1,1.2c0.4,0.4,0.1,0.8,0.2,1.1c0.1,0.5-0.1,0.8-0.5,1.1c-0.4,0.3-0.5,0.7-0.4,1.2c0,0.1,0.1,0.2,0,0.3
	c-0.6,1.4-0.5,2.7,0,4.1c0.2,0.5,0.1,1.1,0.2,1.6c0,0.2,0,0.4,0.1,0.6c0,0.4-0.2,0.8,0.1,1.2c0,0.1,0,0.1,0,0.1
	c-0.4,0-0.5,0.3-0.7,0.5c-0.8,0.7-1,1.2-0.6,2.3c0,0.2,0,0.3,0,0.5c-0.1,0.1-0.1,0.2-0.1,0.4c0.1,1.1,0.1,2.3,0.3,3.4
	c0.1,0.7,0,1.3,0.3,2c0.1,1.2,0.3,2.3,0.4,3.5c0.1,0.6,0.6,0.9,0.9,1.3c0.6,0.6,0.7,1.4,0.8,2.2c0,0.2,0,0.4,0,0.6
	c0.1,0.4,0,0.9,0.2,1.3c0.2,0.4,0.7,0.4,1,0.6c0.5,0.3,0.6,0.7,0.6,1.2c0,0.9,0.1,1.9,0.1,2.9c0,0.4,0,0.9,0.2,1.3
	c0.1,0.2,0.1,0.5,0.1,0.7c-0.1,0.7,0,1.3,0.1,1.9c0.1,0.7,0.3,1.3,1,1.7c0.1-0.1,0.3-0.2,0.4-0.3c0.3-0.8,0.9-0.6,1.5-0.6
	c0.6,0.1,0.8,0.6,1,1.1c0.3,0.9,0.3,1.9,0.3,2.8c0.1,1.4,0.2,2.8,0.2,4.2h2.2l-0.1-1.4l0.4-4l-0.8-3.6l-2-1.2l-2.4-0.4l-0.4-4.4
	l-0.4-3.2l-0.3-1.8c0.1,0.1,0.2,0.1,0.3,0.2c0.8-4,0.3-8.1,0.4-12.1c0-1.6,0.1-1.8,1.4-1.6c2.2,0.3,2.8-0.6,2.5-2.6
	c-0.1-0.9,0-1.8,0-2.7c0-4.7,0-4.9,4.8-4.8c4.9,0,9.8-0.3,14.8,0.2c1.4,0.1,2.4,0.4,3.2,1.4c1.5,2.1,3.5,3.9,2.9,6.9
	c-0.3,1.4,0.1,3-0.1,4.5c-0.3,2.3,0.1,4,2.8,4.2c1.7,0.1,1.7,1.1,1.3,2.1c-0.4,1-0.8,1.8-0.1,2.7c1.2-0.1,0.8-1,0.8-1.6
	c0-4.3-0.6-8.6,0.2-12.7c0.5-2.3,1-5.2,2.8-7c1.2-1.2,3.1-2.1,4.9-0.7c1,0.8,2.4-0.9,3.6,1.1c0.8,1.2,2.4,2,2.1,3.9
	c-0.2,1.3,0.3,1.7,1.6,1.7c1.6-0.1,3.2-0.2,4.9-0.2c2.2,0.1,2.7,0.8,2.4,2.8c-0.1,0.6-0.2,1.4,0.4,1.6c3.3,1.3,1.7,4.1,2,6.3
	c0.3,2.1,1.1,4,0.5,6.5c1.8-1,1.1-2,1.3-2.7c1.7-4.9,1.7-10,1.9-15.2c0.3-5.3,4.3-7.2,8.4-4.8c0.2,0.1,0.5,0.2,0.5,0.2
	c-1.1,3.2,3.2,4.1,3,7c-0.2,3.8-0.1,7.6,0.4,11.5c0.1-3.9,3.8-6.6,3.2-10.8c-0.1-0.9,0.8-1.9,1.2-2.9c0.1,1.3,2.2,1.9,1.5,3.2
	c-0.8,1.4,0.4,1.8,0.7,2.9c0.8-1.7,1-3.9,3.7-2.6c0.5,0.2,0.9-0.4,0.9-1.3c0-4.9,0.2-9.8,0.3-14.7c0.1-7.9,0-15.8,0.1-23.7
	c0-1.5,0-3,1.9-3.4c0.9-0.2,0.4-1,0.4-1.4c0.1-2.2,0.1-4.4,0-6.5c-0.1-1.7,0.5-2.4,2.3-2.5c10.1-0.6,20.1,0.8,30.2,0.7
	c2.2,0,2.1,1.8,2.1,3.1c0.1,2.7-0.1,5.4-0.1,8c0,1.7-0.1,3.2,2.6,2.7c1.7-0.3,3.6,0.4,5.5,0.4c0.8,0,1.9,0.7,2.5-1
	c0.3-0.8,1.2,0.9,1.5,0.9c1.6,0.1,3.4,0.5,5-0.2c0.7-0.3,1.3-0.3,2-0.3c4.3-0.1,4.7,0.2,4.7,4.4c0,1,0.1,2,0,3
	c-0.3,2.7,0.2,4.5,3.6,4.1c0-9.8,0-19.8,0-29.8c0-16.2,1-32.5,0.6-48.7c0-1.1-0.2-2.1,1.5-2.2c1-0.1,1.4-1.4,1.5-2
	c0.5-3.4,3.2-3.5,5.5-3.7c1.5-0.2,1.8-0.7,1.7-2c-0.3-2-0.7-4.5-0.3-6c0.8-3.2,0.1-6.4,0.6-9.5c0.6-3.6-0.1-7.4,0.2-11.1
	c0.2-2.3-1.1-4.7,0.8-7.7c0,2.3,0,3.8,0,5.3c-0.2,6.8,0.1,13.6,0.2,20.4c0.1,3-0.3,6.2,0.3,9.3c0.4,2.2,2.3,1.1,3.4,1.7
	c0.8,0.4,1.8,0.2,2.6,1c0.8,0.9,0.7,2,0.4,2.8c-0.5,1.3-1.2-0.2-1.9-0.2c-2.1,0.1-3.9-1.6-6.8-0.8c3.6,0.7,6.3,2.2,9.5,1.7
	c1.7-0.3,2.9,1.1,2.9,3.4c0,19.5,0,38.9,0,58.4c0,1.6,0.1,3.1,0.6,4.6c0.1,0.3,0,0.8,0.1,0.8c4.1,1.4,2.1,4.8,2.2,7.2
	c0.2,10,0.1,20,0.1,30.1c0,1.2-0.1,2.4,1,3.2c0.8,0.5,0.8,1.3,0.8,2.1c0,0.3,0,0.6,0,0.9c0,2.7,0,5.4,0,8c0,2.1,1.9,4.2,0.1,6.4
	c-0.2,0.3,0,0.9,0.1,1.6c2.1-0.8,2-2.9,2.1-4.1c0.4-3.3,0.1-6.7,0.3-10c0.5-6.2,0.2-12.4,0.4-18.6c0-1.4,0.8-1.3,1.7-1.3
	c2.8,0,5.6,0.1,8.3,0c1.7-0.1,1.9,0.6,1.9,2c-0.1,4.9,0,9.9,0,14.8c0,0.7-0.2,1.6,0.2,2c2.6,2.6,1.4,5.8,1.6,8.6
	c4.5,1.6,3.5-1.6,3.5-3.9c0-1.5,0-3,0-4.5c0-1.3-0.5-2.9,1.7-3.3c1-0.2,0.7-1.5,0.7-2.4c-0.1-6-0.6-12.1-0.2-18
	c0.2-3.4-0.4-8,3.8-10.9c1.6-1,2-3.9,3.8-5.2c5.5-4.1,11.6-2,14.3,3.7c0.6,1.2,1.1,0.8,1.6,0.9c1,0.2,1.2-0.4,1.1-1.2
	c-0.2-2.3,0-4.6-0.4-7c-0.4-2.7-0.5-5.7,0.2-8.5c0.1-0.6,0.3-1.2,0.2-1.7c-0.6-3.6-0.6-3.5,2.9-3.6c4.2,0,8.4-1,12.7-0.6
	c1.3,0.1,2.6-0.4,1.9,2.1c-0.7,2.5,0.5,5.2,0.5,7.9c-0.1,14.2-0.1,28.4,0,42.6c0,1.3-1.3,3.6,0.9,3.8c0.8,0.1,2.7-2.2,2.7-4.5
	c-0.2-5,0-9.9-0.1-14.9c0-1.5-0.1-2.8,2.1-2.4c1.1,0.2,1.7-0.3,1.5-1.5c0-0.1,0-0.2,0-0.3c0.2-1.9-0.8-5.1,0.4-5.6
	c2.5-0.9,5.6-0.7,8.3-0.2c1.4,0.2,2.1,2,2,3.7c-0.1,5-0.1,9.9,0,14.9c0,0.7-0.6,1.9,0.8,2.1c0.9,0.1,1.2-0.4,1.9-1.1
	c0.9-1,1.9-1.4,1.6-3.1c-0.2-0.8-1.1-2.6,0.8-2.9c2-0.3-0.6,2.1,1.2,2.1c1.1-3.4,2.2-6.9,3.4-10.4c1.4,3.1,2.9,6.1,2.9,9.4
	c0,3.3,0,6.7,0,10.6c1.5-1.8,1.2-3.6,1.1-4.9c-0.2-4.9,0.3-9.7,2.6-14c0.9-1.7,2.3-3.5,4.2-3.9c2.1-0.5,3.2-1.2,2.9-3.6
	c-0.1-0.7,0.5-1.4,0.8-2.1c0.6,0.2,0.4,0.8,0.3,1.1c-0.6,3.2,0.6,4.2,3.9,4c2.6-0.2,4.1,2.3,5.2,4.2c3.3,5.8,2.1,12.4,2.3,18.7
	c0,0.9-1,2.6,1.1,2.7c1.9,0,2.2-1.6,2.3-2.8c0.2-2.2,0-4.4,0.1-6.5c0.1-2.2,0.2-4.5,0.2-6.7c0-2,1.4-2.3,2-2.1
	c1.4,0.6,3.7-1.3,4.4,1.8c1,4.9,0.1,9.8,0.7,14.9c0.7-0.6,0.5-1.3,0.4-1.8c-0.2-1.7,0.4-2.4,2.1-2.1c1.7,0.3,2.1-0.4,2.1-2.1
	c0-2.6-0.3-5.1,0.9-7.8c0.7-1.6,3.5-1.7,2.8-4.1c0.7,0.4,1.8-0.3,2.2,1c1,3.4,2.1,6.8,1.2,10.3c-0.2,0.8,0.5,1.3,0.2,2.2
	c-0.2,0.7,0.6,0.6,1.4,0.5c1.8-0.2-0.5-3,1.5-2.3c1,0.3,0.2,2.6,1.3,3.2c1,0.5,2.6,0.1,2.9,2.2c0.9-2.1-0.7-4.5,2.3-5.5
	c2.3-0.7,3.9-0.3,4,2.1c0.1,3,3.1,4.2,3.9,6.7c0.1,0.3,0.9,0.3,1.3,0c2.2-1.4,2.8-1.1,3.5,2c0.2-4,3-4,5.5-4.2
	c4.3-0.2,4.8-0.2,4.1-4.4c-0.6-3.9,2.4-3.1,4.1-4c0.7-0.4,1.7,0.3,0.4-1.1c-0.8-0.8,1-0.8,1.6-1.2c0.2-0.1,0.3-0.3,0.5-0.5
	c0.1,0.3,0.2,0.5,0.3,0.8c0.4,1.7,1.9,2.1,3.2,2.4c2,0.5,3.5,3.2,6.1,1.6c0,0,0.6,0.5,0.6,0.8c0,1.9,1.1,3,2.3,4.3
	c1.2,1.2,2.4,2.8,1.9,5c-0.5,2.3,1.4,3.6,3,4.3c1.1,0.4,0.8,1.4,1.5,1.7c0.1-0.2,0.1-0.4,0.2-0.6c0.2-4.3,0.6-4.9,4.7-5.4
	c1.3-0.2,2.3-1.1,3.7-1.2c1.8-0.2,3.3-0.4,4.2,1.6c0.6,1.3,1.7,0.3,2.5,0.4c2.7,0.4,4.6-1.6,4.6-4.3c0.1-2.7-0.4-5.5,0.6-8.1
	c0.2-0.7-0.9-2.3,1.1-1.6c1.1,0.3,3-1.1,3.1,1.5c0,0.9-0.8,2.5,1.2,2.5c1.9-0.1,4.1,1.3,5.4-1.3c0.2-0.4,0.7-0.8,1.1-0.8
	c2-0.1,4.5-0.8,6,0.1c2.2,1.4,4.3,1.2,6.5,1.6c0.8,0.1,1.3,1.1,1.3,2.1c-0.1,1-0.1,2-0.1,3c0,0.6-0.5,1.5,0.7,1.6
	c0.2,0,0.5,0.1,0.6,0c0.6-0.8-0.6-1-0.6-1.5c0-0.3,0.1-0.6,0.1-1.1c2.4,2.6,4.3,1.2,5.6-0.8c0.7-1.1,1-1.5,1.9-0.5
	c1,1.2,1.1-1.3,2.2-0.5c1.9,1.5,3.2,3.5,2.9,5.6c-0.3,2.3,0.5,3.2,2.3,3.4c1.4,0.2,1.5,0.7,1.4,1.9c-0.7,5.3-0.1,10.7-0.4,16
	c-0.1,1.4,0.2,2.5,2.1,2.4c2-0.1,1.5-1.4,1.5-2.5c-0.2-6.1-0.2-12.2,0.4-18.3c0.3-2.8,5.3-7.2,8-7.5c0.9-0.1,1.7-0.4,2.6-0.5
	c3.7-0.8,4.9,0,4.9,3.8c0.1,6.2,0.2,12.5,0.1,18.8c-0.1,3.3,0.2,6.5,0.5,9.7c0.1,1.4,1,1.9,1.9,2.4c1,0.6,2,0.4,2.6-0.6
	c0.7-0.9,1.1-1.3,1.9-0.1c0.5,0.9,1.5,0.9,2.4,0.9c4.1,0,8.1-0.1,12.2-0.1c0,1.6,0,3.2,0,4.8h32.8V485.6z M273.7,335
	c0-0.1,0-0.2-0.2-0.2c-0.2,0-0.4-0.1-0.6,0.1c-0.1,0.2-0.2,0.4-0.5,0.3c-0.1,0-0.2,0-0.2,0.2c0,0.2,0.2,0.3,0.3,0.4
	c0.1,0.1,0.3,0.1,0.3,0c0.2-0.4,0.5-0.6,0.8-0.7C273.7,335.1,273.7,335,273.7,335z M277.5,335.8c0.3-0.1,0.3-0.6,0.7-0.6
	c0,0,0-0.1,0.1-0.2c-0.1-0.1-0.4-0.3-0.5-0.1c-0.2,0.2-0.4,0.2-0.6,0.3c-0.2,0.1-0.4,0.3-0.2,0.5C277,336,277.3,335.9,277.5,335.8z
	 M295.7,378.6c0,0.1,0,0.3,0.2,0.3c0.2,0,0.3-0.1,0.3-0.3c-0.1-0.4-0.1-0.7-0.4-1.1C295.5,378,295.7,378.3,295.7,378.6z
	 M285.6,368.2c-0.2-0.5-0.3-1-0.6-1.3c-0.3-0.2-0.7-0.1-1.1-0.1c-0.2,0-0.4,0-0.7,0c-0.7,0-0.8,0.1-0.5,0.8c0,0.1,0.1,0.2,0.1,0.2
	c0.6,0.6,0.6,1.2,0.4,2c0,0.2,0,0.4,0,0.6c0,0.6,0.4,1,0.8,1.4c0.1,0.1,0.3,0.2,0.5,0.1c0.5-0.5,1-1,1-1.6c0-0.5,0.1-0.9,0.1-1.4
	C285.6,368.5,285.6,368.3,285.6,368.2z M280.6,364.1c0.1,0.3,0.1,0.7,0.4,0.9c0.4,0.3,0.8,0.8,1.3,0.9c0.1,0,0.2,0,0.2,0
	c0.7-0.1,1.4-0.2,2.1-0.3c0.4-0.1,0.5-0.3,0.5-0.7c0-0.4-0.3-0.4-0.6-0.4c-0.9-0.1-1.8-0.2-2.7-0.3
	C281.5,364.1,281.1,363.9,280.6,364.1z"/>
</svg>
